Patient4_TMGait_0pt5_02_right_31_EMG.mot
version=1
nRows=26
nColumns=33
inDegrees=no
endheader
time	1LAddLong	2LGlutMax	3LGlutMed	4LIliopsoas	5LSemiMemb	6LBicFemLong	7LRecFem	8LVastMed	9LVastLat	10LGasMed	11LTibAnt	12lTibPost	13LPeroneusLong	14LSol	15LExtDigLong	16LFlexDigLong	17RAddLong	18RGlutMax	19RGlutMed	20RIliopsoas	21RSemiMemb	22RBicFemLong	23RRecFem	24RVastMed	25RVastLat	26RGasMed	27RTibAnt	28RTibPost	29RPeroneusLong	30RSol	31RExtDigLong	32RFlexDigLong
41.42	0.008545	-0.038757	-0.1648	-0.000916	0.10498	-0.086823	-0.02182	-0.006866	-0.42221	-0.070496	-0.024567	-0.005646	0.009613	0.006256	-0.063171	0.007782	0.017853	0.17593	0.044861	0.004272	-0.002441	-0.052032	-0.2327	-0.009003	0.039063	-0.027161	0.12726	-0.006866	-0.16373	-0.16541	-0.006409	-0.010071
41.421	0.000458	-0.018768	-0.19363	0.024567	0.03418	-0.029449	0.007629	-0.003967	-0.28961	-0.045776	-0.000916	-0.004578	0.040894	-0.071716	-0.026703	0.003967	0.029602	0.20889	0.075378	-0.005951	-0.027618	-0.13702	-0.21103	-0.0354	0.02594	-0.018463	0.24918	-0.008087	-0.046387	-0.046844	-0.002747	-0.013733
41.422	-0.010223	0.007477	-0.21072	0.022583	-0.03006	-0.009308	0.041656	-0.00351	-0.17975	-0.044098	0.018616	-0.008392	0.023804	-0.10559	-0.017395	-0.004883	0.009155	0.2684	0.11063	-0.024872	-0.009766	-0.19913	-0.24323	-0.050049	0.025024	-0.011749	0.20691	-0.006256	0.027771	0.1384	-0.006104	-0.011139
41.423	0.007477	-0.011139	-0.21271	0.027771	0.019836	0.018768	0.0383	-0.02594	-0.18616	-0.033112	0.016785	0.002594	0.028839	-0.084381	-0.020142	0.010834	0.008087	0.27268	0.12268	-0.014801	0.011139	-0.30228	-0.29953	0.004578	0.04776	-0.011292	0.45242	-0.014343	-0.10178	0.07019	-0.002136	-0.016327
41.424	0.010834	-0.018463	-0.084534	0.019379	0.057678	-0.017242	-0.008545	-0.028534	-0.18249	-0.041504	0.000763	-0.010834	0.062256	-0.049591	-0.01236	-0.001984	0.013275	0.36713	0.12787	-0.090637	-0.001831	-0.24872	-0.29572	0.00946	0.035553	-0.013885	0.56763	-0.007629	-0.16342	-0.059814	-0.001678	-0.014496
41.425	0.00412	0.007019	0.037384	0.003204	0.09552	-0.052032	-0.000458	-0.00946	-0.098724	-0.042572	-0.052185	-0.009613	0.078583	-0.055389	-0.039215	0.004883	0.034485	0.35553	0.11658	-0.10178	0.007324	-0.16449	-0.28198	-0.047302	0.024719	-0.014038	0.51514	-0.009003	-0.065002	-0.11963	-0.001678	-0.024109
41.426	-0.007324	-0.004578	0.050507	0.023193	0.14252	-0.021057	0.044861	0.032959	0.005493	-0.043793	-0.090027	-0.011444	0.065155	-0.028839	-0.065918	-0.00412	0.039825	0.37094	0.004578	-0.02533	0.011139	-0.046844	-0.27145	-0.05661	0.012512	-0.0177	0.42129	-0.010529	0.10788	-0.066528	-0.001526	-0.019226
41.427	-0.008545	-0.019226	-0.021362	0.016785	0.1207	0.070343	-0.003967	-0.003204	0.12192	-0.031738	-0.048523	-0.008087	0.085602	-0.032043	-0.064392	-0.003815	0.027161	0.26642	0.054626	0.011139	-0.001068	0.033417	-0.26886	-0.07309	0.036926	-0.016785	-0.028381	-0.013123	0.21988	-0.001526	-0.001984	-0.025177
41.428	-0.009918	0.058899	-0.072784	0.007629	0.062103	0.11444	-0.076294	0.025635	0.23895	-0.016174	-0.055847	-0.00412	0.040894	-0.045013	-0.050507	0.01709	0.01236	0.1268	-0.02121	0.090179	0.015869	0.11276	-0.28366	-0.074615	0.022278	-0.007477	-0.85449	-0.007324	0.35248	-0.062866	-0.001831	-0.016479
41.429	0.009308	0.09964	-0.11932	0.012054	0.006714	0.010529	-0.15961	0.014496	0.31616	-0.007782	-0.02121	-0.008087	0.00885	-0.026245	-0.071106	-0.010529	0.025635	0.011902	0.06073	0.10086	0.013275	0.14435	-0.24674	-0.09079	0.025177	-0.028687	-0.6723	-0.007324	0.13458	-0.054932	-0.002136	-0.024414
41.43	0.030975	0.11307	-0.082855	0.00061	0.009613	0.002289	-0.18509	-0.005798	0.26825	-0.01297	0.095978	-0.009003	-0.000305	-0.039673	-0.099182	0.006256	0.004883	0.074768	0.061493	0.067902	-0.009918	0.17899	-0.26977	-0.082855	0.03479	-0.039063	-0.083313	-0.01297	-0.065002	-0.063477	-0.00473	-0.024872
41.431	0.052948	0.10483	-0.096588	0.004578	0.064392	-0.054626	-0.17242	-0.019379	0.053406	-0.019379	0.18753	-0.001984	0.008087	-0.00351	-0.081024	0.006409	0.000458	-0.040741	0.099335	0.026855	-0.02533	0.15381	-0.27084	-0.066376	0.029907	-0.024872	0.082397	0	0.080566	-0.14999	-0.000153	-0.015564
41.432	0.028839	0.076447	0.007324	-0.002441	0.096283	0.10239	-0.17929	-0.021973	-0.21042	-0.036316	0.12924	-0.010529	0.039215	0.003815	-0.08728	-0.007019	-0.002289	-0.083923	0.17716	0.014191	-0.024719	0.081635	-0.26825	-0.081482	0.025177	-0.019073	-0.49164	-0.00946	0.31616	-0.25848	-0.000916	-0.009003
41.433	-0.006714	0.035553	0.055542	0.009766	0.054321	0.3157	-0.19043	-0.007935	-0.26688	-0.044403	-0.080414	-0.007019	0.083923	0.010986	-0.017242	0.008698	0.001984	-0.087585	-0.005188	-0.026245	-0.055542	0.01709	-0.24521	-0.048218	0.016632	0.003052	-0.42023	-0.008698	0.30746	-0.29068	-0.001831	-0.002899
41.434	-0.012054	-0.015564	0.13855	0.012665	-0.025482	0.40024	-0.18738	0.020447	-0.21835	-0.018311	-0.11963	-0.013275	0.045471	0.002899	-0.009155	0.004883	-0.013123	-0.059052	-0.009155	-0.041504	-0.063782	0.021667	-0.2742	-0.03067	0.014191	-0.012665	-0.20508	-0.009003	0.10101	-0.22247	0.000763	-0.009613
41.435	-0.018616	-0.020599	0.12146	0.011597	-0.10025	0.37903	-0.1648	0.039063	-0.091248	-0.019226	-0.10559	-0.006104	0.006866	0.005493	-0.063934	-0.00885	-0.005798	-0.12634	-0.02594	-0.039368	-0.067596	0.027618	-0.22751	-0.016479	0.019073	-0.016937	0.21835	-0.012054	-0.061646	-0.083771	-0.00061	-0.014496
41.436	0.00412	0.003967	0.15945	0.01297	-0.11566	0.24536	-0.17914	0.035248	0.045471	-0.038147	-0.088806	-0.016174	0.07309	0.015259	-0.10651	0.002899	-0.014343	-0.16281	0.18723	-0.082703	-0.088043	0.051575	-0.26428	-0.042877	0.00824	-0.01297	0.54886	-0.013123	-0.13702	0.054626	-0.00061	-0.015564
41.437	0.006866	0.06546	0.11704	0.003357	-0.12192	0.17197	-0.12222	0.018768	0.15381	-0.043182	0.030518	-0.000763	0.095673	0.010071	-0.009613	0.006714	-0.027161	-0.17609	0.22415	-0.11032	-0.074921	0.03479	-0.27557	-0.045471	0.014954	-0.02121	0.35675	-0.011597	-0.14633	0.098724	-0.002441	-0.010986
41.438	0.023499	0.078583	0.098572	0.003204	-0.012054	0.039215	-0.050201	0.005035	0.21027	-0.027313	-0.017853	-0.011597	0.13245	0.006561	-0.036926	0.012054	-0.032501	-0.19882	-0.000153	-0.083923	-0.055237	-0.011139	-0.28458	-0.028839	0.015411	-0.021515	0.014496	-0.009003	-0.12665	0.091248	-0.003357	-0.018311
41.439	0.024261	0.094299	0.057678	0.020142	0.096741	-0.06897	-0.004272	-0.002899	0.17014	-0.003357	-0.059967	-0.003357	0.0914	-0.013733	-0.083618	0.011902	-0.080872	-0.20462	0.009308	0.010376	-0.000458	0.032501	-0.29404	-0.020599	0.022888	-0.012512	0.06424	-0.016327	-0.085754	0.11261	-0.00061	-0.011444
41.44	0.001831	0.096436	0.01297	0.016174	0.057678	-0.026855	-0.036469	0.000153	0.057983	-0.011749	-0.036163	0.001984	0.045929	-0.065308	-0.030365	0.006561	-0.082397	-0.21042	-0.082855	0.055695	0.063324	-0.085907	-0.32135	-0.011444	0.016022	-0.015869	0.25787	-0.008698	-0.023193	0.17059	-0.001831	-0.018768
41.441	-0.026703	0.13947	0.043488	-0.006409	0.010529	0.00412	0.066528	-0.010681	-0.11444	-0.017548	-0.036926	0.006866	0.052795	-0.075226	0.074921	0.015869	-0.071564	-0.19119	-0.013275	0.023041	0.074615	-0.09903	-0.29312	-0.00885	0.021057	-0.016632	0.28244	-0.005951	-0.000916	0.16556	0.000153	-0.020447
41.442	-0.022125	0.14526	0.035248	0.010071	-0.01358	-0.011139	0.10101	-0.014191	-0.19882	-0.01297	-0.071411	0.011749	0.039673	-0.061493	0.075378	0.014343	-0.031433	-0.13336	0.012665	0.037689	0.025787	-0.12787	-0.26443	-0.046997	0.025482	-0.0177	0.035706	-0.013885	0.08316	0.11551	0	-0.016022
41.443	-0.024109	0.12344	-0.022125	0.00946	-0.028229	-0.33325	0.095367	-0.013885	-0.2655	-0.001221	-0.12116	0.016479	0.041199	-0.077209	0.02594	0.027618	0.005493	-0.1738	-0.06958	0.070343	-0.043945	-0.17242	-0.30456	-0.045319	0.00824	-0.011902	-0.43381	-0.010071	0.20294	0.057526	-0.002899	-0.022583
41.444	0.010376	0.10346	-0.024109	0.011902	-0.005798	-0.3537	0.074615	-0.010681	-0.22644	0.017548	-0.11658	0.018921	0.032959	-0.08667	0.075684	0.038147	0.044403	-0.22537	0.19867	0.07309	-0.068665	-0.16769	-0.29251	-0.037384	0.007935	-0.00885	-0.54825	-0.008392	0.044861	0.032196	-0.001831	-0.020294
41.445	0.023193	0.020905	-0.063477	0.010529	0.035858	0.009918	0.07782	0.007629	-0.092468	0.014801	-0.11002	0.018005	0.016327	-0.050201	0.048523	0.028992	0.045929	-0.12955	0.065918	0.064697	-0.076904	-0.048218	-0.32379	0.010681	0.013123	-0.005035	-0.25238	-0.00824	-0.052643	0.066986	-0.002136	-0.026398
